<svg width="67" height="58" fill="none" xmlns="http://www.w3.org/2000/svg"><path fill-rule="evenodd" clip-rule="evenodd" d="M30.698 56h-.005l-17.651-.004A1.046 1.046 0 0112 54.946c0-.582.464-1.05 1.042-1.05l17.651.004h.005c3.894 0 7.701-1.094 11.009-3.163l22.114-13.845c.63-.472.981-1.006 1.077-1.632a1.734 1.734 0 00-.734-1.71c-.503-.355-1.211-.504-2.053-.443-1.112.084-2.401.53-3.82 1.326-.178.105-1.733 1.09-4.303 2.722-2.43 1.544-6.112 3.88-10.992 6.974a1.037 1.037 0 01-1.437-.328 1.055 1.055 0 01.326-1.448c4.88-3.09 8.556-5.426 10.988-6.97 3.282-2.083 4.232-2.691 4.397-2.779 1.689-.945 3.26-1.474 4.68-1.584 1.324-.1 2.5.18 3.4.81a3.853 3.853 0 011.606 3.75c-.183 1.194-.834 2.218-1.937 3.032-.013.009-.021.017-.034.022l-.035.022-22.145 13.861A22.783 22.783 0 0130.698 56z" fill="#F05542"/><path fill-rule="evenodd" clip-rule="evenodd" d="M39.183 48H28.508c-.586 0-1.057-.489-1.057-1.097s.471-1.097 1.057-1.097h10.675c1.448 0 2.633-1.175 2.699-2.674a2.804 2.804 0 00-.744-2.048 2.7 2.7 0 00-2.012-.892H25.919c-.911-.01-3.042-.027-5.256.48-2.448.562-4.416 1.618-5.846 3.145-.326.348-.63.723-.907 1.116a1.03 1.03 0 01-1.475.242 1.124 1.124 0 01-.233-1.531c.334-.48.704-.933 1.1-1.354 1.726-1.837 4.046-3.1 6.907-3.758 2.17-.498 4.2-.543 5.728-.53H39.13c1.33 0 2.62.572 3.54 1.573a5.044 5.044 0 011.325 3.666c-.124 2.67-2.237 4.76-4.812 4.76z" fill="#F05542"/><path fill-rule="evenodd" clip-rule="evenodd" d="M12.936 58H1.064A1.062 1.062 0 010 56.942V41.059C0 40.475.477 40 1.064 40h11.872c.587 0 1.064.475 1.064 1.059v15.883c0 .584-.477 1.058-1.064 1.058zM2.12 55.892h9.76V42.109H2.12v13.783zM35 32a15.94 15.94 0 01-11.317-4.687A15.927 15.927 0 0119 16a15.958 15.958 0 014.683-11.312A15.95 15.95 0 0135 0a15.94 15.94 0 0111.317 4.688A15.928 15.928 0 0151 16a15.958 15.958 0 01-4.683 11.313A15.95 15.95 0 0135 32zm0-29.877c-3.706 0-7.19 1.444-9.813 4.065a13.789 13.789 0 00-4.064 9.817c0 3.707 1.446 7.194 4.064 9.816A13.789 13.789 0 0035 29.886c3.706 0 7.19-1.443 9.813-4.065a13.788 13.788 0 004.064-9.816c0-3.708-1.446-7.195-4.064-9.817A13.789 13.789 0 0035 2.123z" fill="#F05542"/><path fill-rule="evenodd" clip-rule="evenodd" d="M35 24c-2.278 0-4.267-1.39-4.839-3.385a1.07 1.07 0 01.712-1.318 1.05 1.05 0 011.3.72c.31 1.076 1.496 1.855 2.831 1.855 1.602 0 2.906-1.08 2.906-2.407 0-.403 0-1.633-3.154-2.434-1.292-.305-2.352-.77-3.146-1.385-1.056-.818-1.61-1.894-1.61-3.115 0-2.495 2.243-4.53 5-4.53 2.26 0 4.245 1.375 4.83 3.349a1.065 1.065 0 01-.703 1.323 1.046 1.046 0 01-1.304-.713c-.319-1.08-1.484-1.836-2.823-1.836-1.601 0-2.906 1.08-2.906 2.407 0 1.478 1.968 2.16 3.142 2.434l.017.004c1.37.35 2.413.81 3.185 1.416C39.459 17.182 40 18.248 40 19.47c0 2.5-2.243 4.53-5 4.53z" fill="#F05542"/><path fill-rule="evenodd" clip-rule="evenodd" d="M35 26c-.554 0-1-.47-1-1.056V7.056C34 6.471 34.446 6 35 6s1 .471 1 1.056v17.888c0 .581-.45 1.056-1 1.056z" fill="#F05542"/></svg>