<svg width="202" height="144" fill="none" xmlns="http://www.w3.org/2000/svg"><path d="M27.988 72.79c4.413-17.708 13.637-34.239 26.682-46.986C67.714 13.056 85.517 3.79 103.999.937c18.481-2.852 38.772.975 56.292 9.196 8.641 4.057 16.937 9.098 24.369 15.113 6.884 5.563 13.195 12.508 16.187 21.004 1.342 3.818 1.898 8.601-.494 12.136-2.392 3.535-6.284 4.5-10.186 4.208-4.333-.328-8.393-1.993-12.33-3.739a85.296 85.296 0 01-12.886-7.095 94.117 94.117 0 01-5.904-4.314l2.215-1.294c.644 3.65 3.045 6.75 3.204 10.515.132 3.207-1.456 6.343-4.766 7.078-3.31.736-7.396-.265-10.565-1.461a27.846 27.846 0 01-9.329-5.83l2.215-1.293c.865 2.897 1.739 6.033.909 9.045-.662 2.383-2.356 4.562-4.819 5.21-2.745.717-5.975-.32-8.552-1.25a31.101 31.101 0 01-7.944-4.252l1.81-1.816c2.842 3.969.317 9.31-3.372 11.693-5.243 3.376-11.986.603-16.849-2.108l1.995-1.152c.256 4.837-2.604 9.683-6.937 11.818-2.604 1.275-5.437 1.382-8.28 1.231-2.841-.15-5.621-.46-8.26.558-3.77 1.462-6.179 5.191-7.123 8.983-1.077 4.279-.291 8.62 2.136 12.287 6.099 9.231 18.208 11.26 28.402 11.056 3.292-.071 6.575-.319 9.859-.558 2.833-.204 5.684-.505 8.526-.417 4.069.124 8.923.966 11.703 4.253 3.707 4.367 1.739 10.24-2.524 13.376-5.684 4.182-13.08 2.091-19.179.133l1.633-1.639c1.738 4.855-1.88 10.232-6.593 11.561-5.446 1.532-11.033-2.055-13.698-6.671l2.418-.319c-1.562 4.704-6.31 8.177-11.324 7.787-5.013-.39-9.311-4.367-10.115-9.31l1.28.974c-16.522 1.391-32.895-5.377-44.986-16.495C19.18 107.206 11.95 90.428 9.992 73.065c-1.139-10.046-.494-20.26 1.615-30.137l.61 1.497-5.57-4.031c-.706-.514-1.006-1.852 0-2.294 6.434-2.818 14.175-2.357 20.026 1.683 5.534 3.818 8.932 10.285 9.003 17.017.018 1.71-2.63 1.71-2.648 0-.053-5.749-2.939-11.445-7.687-14.723-5.014-3.455-11.766-4.128-17.352-1.683V38.1l5.569 4.03c.503.363.741.877.609 1.497-3.592 16.832-2.71 34.94 4.016 50.903 6.346 15.068 18.102 27.435 33.08 34.017 8.11 3.561 17.034 5.174 25.869 4.429.52-.044 1.191.443 1.28.975.6 3.738 3.698 7.016 7.555 7.362 3.857.345 7.573-2.215 8.773-5.83.353-1.063 1.827-1.346 2.418-.318 2.022 3.499 6.205 6.528 10.424 5.519 3.548-.851 6.319-4.766 5.031-8.372-.336-.948.706-1.931 1.633-1.639 5.269 1.692 11.879 3.88 16.884.328 1.765-1.258 3.301-3.242 3.477-5.475.159-1.949-.794-3.782-2.312-4.961-3.319-2.56-8.173-2.577-12.136-2.356-6.275.354-12.551 1.081-18.852.886-9.947-.31-20.76-3.446-26.664-12.092-4.713-6.892-4.157-17.24 2.277-22.944 1.677-1.489 3.707-2.578 5.922-3.012 3.319-.647 6.638.035 9.974-.098 2.868-.115 5.384-1.187 7.299-3.357a9.889 9.889 0 002.463-7.087c-.053-1.037 1.156-1.612 1.994-1.152 3.84 2.135 9.373 4.775 13.698 2.392 2.807-1.55 5.013-5.395 2.904-8.336-.759-1.054.759-2.596 1.809-1.816 1.933 1.435 4.025 2.666 6.258 3.579 2.233.912 4.678 1.78 7.034 1.78 2.154 0 3.593-1.47 4.149-3.481.697-2.534-.177-5.209-.909-7.636-.398-1.311 1.279-2.17 2.215-1.294a24.83 24.83 0 007.661 4.952c2.833 1.152 5.966 1.985 8.941 1.754 2.974-.23 3.874-2.825 3.468-5.465-.485-3.136-2.48-5.82-3.027-8.957-.238-1.364 1.156-2.126 2.215-1.293a85.602 85.602 0 0011.836 7.822c4.148 2.277 8.182 4.2 12.524 5.546 3.257 1.01 7.361 1.816 10.539.115 3.645-1.967 3.98-6.334 3.107-9.975-1.978-8.256-8.218-15.22-14.493-20.579-6.805-5.802-14.563-10.612-22.533-14.625C145.419 5.57 126.823 1.06 108.367 3.018c-18.455 1.958-34.757 9.55-48.146 21.26-13.027 11.402-22.683 26.506-27.925 43.01a101.137 101.137 0 00-1.757 6.201c-.415 1.657-2.965.957-2.55-.709v.01z" fill="#F05542"/><path d="M23.958 46.032c-.078.222-.167.474-.314.675-.147.201-.284.403-.471.564-.186.161-.373.322-.589.423-.216.1-.442.211-.687.252a1.18 1.18 0 01-.589.03.998.998 0 01-.55-.181l-.294-.232a1.61 1.61 0 01-.383-.665c-.098-.473-.118-.936 0-1.41.177-.664.677-1.248 1.345-1.43.442-.11.893-.07 1.296.172.353.211.647.594.736 1.017.088.383.068.584 0 .967 0 .03-.01.06-.02.08-.049.151-.098.302-.177.433a1.6 1.6 0 01-.274.353 1.538 1.538 0 01-1.08.463c-.403 0-.785-.171-1.09-.453a1.488 1.488 0 01-.284-.373 1.152 1.152 0 01-.177-.564 1.15 1.15 0 01.03-.604 1.16 1.16 0 01.264-.514 1.3 1.3 0 01.413-.392l.353-.151c.265-.07.52-.07.785 0l.354.15c.225.132.392.313.53.544 0 .02.02.03.03.05l-.227-.301.02.02-.294-.232h.02l-.354-.14h.02l-.393-.051h.02l-.393.05h.02l-.354.151s.02 0 .02-.01l-.295.232.03-.03-.226.302s.03-.05.04-.07l-.148.362s.03-.08.03-.131l-.05.403v-.121l.05.403s0-.05-.02-.07l.147.362s-.01-.03-.02-.04l.226.301-.03-.03.295.232s-.02-.01-.03-.02l.354.15h-.04l.393.051h-.049l.393-.05s-.069.01-.098.03l.353-.151s-.059.03-.088.05l.294-.231-.078.08.226-.302s-.05.08-.07.121l.148-.362a.885.885 0 00-.059.231l.05-.403c-.02.121-.01.242 0 .373l-.05-.403s.01.08.02.11l-1.816-1.056c.108-.02.216-.05.314-.091l-.353.15c.098-.04.196-.1.284-.17l-.294.231a1.18 1.18 0 00.245-.251l-.225.302a1.14 1.14 0 00.157-.282l-.148.362s.02-.04.02-.06c.049-.202.137-.373.265-.514.108-.16.245-.292.412-.392.167-.111.354-.172.55-.182.196-.04.392-.04.589.03l.353.151c.226.131.393.313.53.544l.148.363a1.6 1.6 0 010 .805l.01-.01zM12.999 26.279c-.422 9.73-3.686 19.237-9.426 27.14-1.005 1.382-3.337.044-2.323-1.347 5.47-7.528 8.663-16.5 9.058-25.784.072-1.713 2.762-1.722 2.69 0v-.01z" fill="#F05542"/><path d="M10.452 26.7c.937-5.303 6.146-9.38 11.674-9.677 1.336-.07 3.2-.043 4.21.93 1.29 1.261.418 3.096-.246 4.426-1.227 2.443-3.228 4.512-5.564 6.016-2.691 1.739-5.955 2.686-9.21 2.6-1.755-.044-1.755-2.652 0-2.609 4.428.113 8.828-2.051 11.337-5.546.61-.844 1.146-1.765 1.491-2.739 0-.017.137-.452.137-.452.027 0 .19.104.1.14-.1.043-.473-.097-.582-.114a8.52 8.52 0 00-1.491-.06c-2.046.078-4.064.869-5.664 2.077-1.891 1.435-3.173 3.417-3.573 5.695-.118.695-1.019 1.086-1.682.912-.773-.2-1.073-.904-.955-1.608l.018.009z" fill="#F05542"/><path d="M10.377 28.282C8.94 23.38 6.432 17.84.997 16.644l1.685-1.304c-.32 6.035 3.253 11.79 8.714 14.174.656.288.807 1.268.479 1.844-.4.693-1.162.774-1.818.486C3.807 29.118-.34 22.22.022 15.34c.044-.909.807-1.493 1.684-1.304 6.366 1.412 9.54 7.734 11.233 13.527.487 1.664-2.075 2.383-2.562.72z" fill="#F05542"/></svg>