<svg width="55" height="55" fill="none" xmlns="http://www.w3.org/2000/svg"><path d="M27 26c-2.757 0-5-2.243-5-5s2.243-5 5-5 5 2.243 5 5-2.243 5-5 5zm0-8.335a3.335 3.335 0 000 6.67 3.335 3.335 0 000-6.67zM35.694 13c-2.096-2.148-5.082-3.38-8.193-3.38-3.114 0-6.102 1.231-8.195 3.378L18 11.915C20.426 9.427 23.889 8 27.501 8 31.11 8 34.572 9.428 37 11.917L35.694 13zm-8.196 20c-3.608 0-7.07-1.427-9.498-3.917L19.306 28c2.095 2.148 5.081 3.381 8.192 3.381 3.114 0 6.101-1.232 8.196-3.378L37 29.085C34.573 31.574 31.11 33 27.498 33zm-15.305-5L11 26.784 15.63 22 11 17.216 12.193 16 18 22l-5.807 6z" fill="#F05542"/><path d="M16 23H9.028C4.6 23 1 19.185 1 14.496 1 9.81 4.601 6 9.028 6v1.757c-3.507 0-6.36 3.023-6.36 6.739 0 3.72 2.853 6.747 6.36 6.747H16V23zm26.807 5L37 22l5.807-6L44 17.217 39.371 22 44 26.784 42.807 28z" fill="#F05542"/><path d="M46.438 23H39v-1.757h7.438c3.74 0 6.782-3.027 6.782-6.747 0-3.716-3.042-6.738-6.782-6.738V6C51.159 6 55 9.811 55 14.496 55 19.186 51.159 23 46.438 23z" fill="#F05542"/><path d="M48.296 17C46.385 8.131 38.264 1.694 28.987 1.694c-9.22 0-17.33 6.39-19.285 15.194L8 16.53C10.126 6.952 18.953 0 28.987 0 39.084 0 47.921 7.004 50 16.653L48.296 17zM43.85 55H42V35.423l.269-.256C45.47 32.113 47.512 28.252 48.17 24l1.83.254c-.697 4.505-2.82 8.607-6.15 11.886V55zM22 55h-1.78v-6.546h-8.108c-3.622 0-6.57-2.887-6.57-6.435v-7.283H0L6.326 24l1.544.864L3.075 33h4.248v9.017c0 2.593 2.149 4.702 4.79 4.702H22V55z" fill="#F05542"/></svg>