<svg width="27" height="34" fill="none" xmlns="http://www.w3.org/2000/svg"><path fill-rule="evenodd" clip-rule="evenodd" d="M9.965 34a13.9 13.9 0 01-.5-.011c-1.645-.073-3.132-.514-4.42-1.31-1.13-.7-2.106-1.67-2.898-2.883-.68-1.04-1.211-2.235-1.583-3.552a14.37 14.37 0 01-.538-3.422C0 21.931-.01 8.053.016 7.19.04 6.408.3 5.73.773 5.226a2.559 2.559 0 011.647-.799c.35-.03 1.238-.033 1.933.602.538.494.812 1.225.812 2.174a.531.531 0 01-1.062 0c0-.64-.158-1.107-.468-1.39-.382-.352-.914-.347-1.122-.328-.37.034-.712.2-.965.467-.292.313-.456.75-.471 1.269-.025.788-.014 14.753.01 15.565.032 1.025.204 2.12.499 3.165.343 1.213.83 2.311 1.45 3.26.706 1.083 1.569 1.942 2.565 2.56 1.131.7 2.446 1.086 3.91 1.153 1.305.057 2.6-.135 3.846-.576a10.483 10.483 0 003.373-1.96c1.32-1.14 3.85-3.4 5.972-5.72 1.132-1.236 3.044-3.489 3.166-4.72.04-.394-.12-.931-.498-1.197a1.773 1.773 0 00-.996-.33c-.704-.026-1.548.268-2.508.874-.164.104-.742.547-1.41 1.06-.972.747-2.302 1.77-3.4 2.544a.533.533 0 01-.613-.87c1.078-.761 2.4-1.777 3.364-2.519.844-.649 1.295-.992 1.49-1.116 1.144-.723 2.194-1.07 3.117-1.038a2.81 2.81 0 011.567.523c.748.524 1.016 1.47.945 2.171-.117 1.189-1.242 2.933-3.44 5.335-2.158 2.36-4.723 4.65-6.06 5.806a11.558 11.558 0 01-3.715 2.16A11.16 11.16 0 019.965 34z" fill="#fff"/><path fill-rule="evenodd" clip-rule="evenodd" d="M4.703 16.953a.531.531 0 01-.531-.525c-.022-1.643-.124-9.956-.038-12.285.036-.943.467-1.53.824-1.857a2.407 2.407 0 011.6-.642h.007c.482.002 1.177.093 1.75.53.408.307.893.902.897 1.987a.531.531 0 01-.529.533h-.002a.532.532 0 01-.531-.529c-.003-.531-.158-.905-.474-1.144-.266-.202-.662-.312-1.113-.312H6.56a1.35 1.35 0 00-.883.363c-.208.19-.46.538-.48 1.113-.086 2.302.018 10.592.037 12.232a.53.53 0 01-.524.538c-.002-.002-.005-.002-.007-.002z" fill="#fff"/><path fill-rule="evenodd" clip-rule="evenodd" d="M8.716 15.985a.53.53 0 01-.53-.527 3806.38 3806.38 0 01-.03-10.98l-.004-.294c-.031-1.96-.04-2.552.471-3.185C9.2.287 10.175-.096 11.11.021c1.33.168 2.242 1.089 2.271 2.289.02.894.025 2.114.029 3.293.002.315.002.625.005.923a.529.529 0 01-.53.534h-.002a.532.532 0 01-.531-.53l-.004-.922c-.005-1.173-.01-2.389-.03-3.274-.015-.664-.542-1.158-1.34-1.26-.57-.073-1.183.167-1.528.594-.252.312-.266.606-.235 2.501l.005.299v.006c0 .087.013 8.669.029 10.977a.531.531 0 01-.527.536c-.002-.002-.002-.002-.005-.002z" fill="#fff"/><path fill-rule="evenodd" clip-rule="evenodd" d="M16.751 22.997a.53.53 0 01-.53-.532c0-1.217.012-4.513.026-8.001.015-4.098.033-8.336.033-10.17 0-.216-.035-.63-.281-.95-.244-.32-.655-.483-1.226-.483-.386 0-.724.11-.954.312-.275.241-.414.624-.414 1.137 0 .073.028 7.586 0 11.621a.53.53 0 01-.532.527h-.004a.53.53 0 01-.527-.536c.029-4.028 0-11.534 0-11.61 0-1.037.423-1.626.775-1.938.423-.372 1.011-.578 1.656-.578.633 0 1.507.157 2.071.903.186.243.496.777.496 1.594 0 1.837-.017 6.074-.033 10.173-.013 3.488-.026 6.782-.026 7.997a.529.529 0 01-.53.534z" fill="#fff"/><path fill-rule="evenodd" clip-rule="evenodd" d="M9.783 29.243a.531.531 0 01-.376-.155l-3.699-3.699a2.92 2.92 0 01-.859-2.076 2.937 2.937 0 014.934-2.15 2.917 2.917 0 012-.785c.783 0 1.52.305 2.075.859a2.92 2.92 0 01.86 2.076c0 .784-.306 1.52-.86 2.076l-3.698 3.699a.535.535 0 01-.377.155zm-2-7.803c-.481 0-.96.182-1.324.547-.73.73-.73 1.92 0 2.65l3.324 3.324 3.325-3.324a1.876 1.876 0 00-1.324-3.199c-.5 0-.971.195-1.323.55l-.3.298a.53.53 0 01-.75 0l-.298-.299a1.886 1.886 0 00-1.33-.547z" fill="#F05542"/></svg>