<svg width="51" height="64" fill="none" xmlns="http://www.w3.org/2000/svg"><path fill-rule="evenodd" clip-rule="evenodd" d="M18.866 64c-.314 0-.633-.008-.947-.02-3.114-.139-5.93-.973-8.369-2.481-2.137-1.324-3.985-3.16-5.486-5.456-1.286-1.97-2.292-4.232-2.996-6.725C.465 47.181.113 44.944.05 42.84 0 41.156-.021 14.883.029 13.25c.046-1.48.54-2.762 1.437-3.717A4.845 4.845 0 014.584 8.02c.662-.059 2.343-.063 3.659 1.14 1.018.934 1.538 2.317 1.538 4.114a1.006 1.006 0 01-2.012 0c0-1.21-.298-2.095-.884-2.631-.725-.666-1.731-.658-2.125-.62a2.86 2.86 0 00-1.827.884c-.553.59-.863 1.42-.893 2.4-.046 1.493-.025 27.928.021 29.466.059 1.94.386 4.014.943 5.992.65 2.296 1.572 4.374 2.745 6.172 1.337 2.049 2.971 3.675 4.857 4.844 2.142 1.324 4.63 2.057 7.4 2.183a19.224 19.224 0 007.284-1.09 19.85 19.85 0 006.387-3.712c2.498-2.158 7.288-6.436 11.306-10.827 2.142-2.339 5.763-6.604 5.993-8.934.075-.746-.226-1.764-.943-2.267-.356-.251-.943-.586-1.886-.624-1.332-.05-2.929.507-4.748 1.655-.31.197-1.404 1.035-2.67 2.007-1.839 1.412-4.357 3.348-6.436 4.815a1.008 1.008 0 01-1.16-1.647c2.04-1.442 4.542-3.365 6.369-4.768 1.597-1.228 2.452-1.878 2.82-2.112 2.167-1.37 4.153-2.028 5.9-1.965 1.648.062 2.641.758 2.968.988 1.416.994 1.923 2.783 1.79 4.111-.223 2.25-2.352 5.552-6.513 10.098-4.086 4.467-8.943 8.804-11.474 10.99a21.844 21.844 0 01-7.032 4.09A21.134 21.134 0 0118.866 64z" fill="#F05542"/><path fill-rule="evenodd" clip-rule="evenodd" d="M9.062 31.996c-.51 0-.928-.44-.936-.994-.039-3.11-.218-18.858-.066-23.269.063-1.786.822-2.897 1.45-3.517C10.293 3.444 11.318 3 12.327 3h.012c.85.004 2.073.176 3.083 1.002.717.583 1.57 1.71 1.578 3.765.004.558-.417 1.006-.931 1.01h-.004c-.515 0-.932-.448-.936-1.002-.003-1.006-.276-1.714-.834-2.167-.467-.382-1.165-.591-1.96-.591h-.004c-.537 0-1.118.255-1.555.687-.366.36-.81 1.019-.845 2.11-.152 4.36.03 20.06.066 23.167.008.558-.405 1.01-.924 1.019-.004-.004-.007-.004-.011-.004z" fill="#F05542"/><path fill-rule="evenodd" clip-rule="evenodd" d="M16.093 29.996a1 1 0 01-1.007-.988c-.03-4.304-.055-20.183-.055-20.603l-.008-.552c-.059-3.68-.076-4.79.894-5.978C17.008.538 18.859-.18 20.63.04c2.522.316 4.251 2.044 4.306 4.295.038 1.679.046 3.967.055 6.181.004.59.004 1.171.008 1.732a.997.997 0 01-1.003 1.001h-.004a1.004 1.004 0 01-1.008-.992c-.004-.557-.004-1.143-.008-1.732-.009-2.202-.017-4.482-.055-6.144-.03-1.246-1.028-2.172-2.543-2.363-1.08-.137-2.242.311-2.897 1.113-.478.586-.503 1.138-.444 4.694l.008.56v.013c0 .162.025 16.266.054 20.598A1.002 1.002 0 0116.102 30c-.005-.004-.005-.004-.009-.004z" fill="#F05542"/><path fill-rule="evenodd" clip-rule="evenodd" d="M30.94 43c-.53 0-.957-.447-.957-1.002 0-2.297.024-8.515.048-15.097.028-7.73.06-15.728.06-19.186 0-.409-.064-1.19-.506-1.796-.439-.6-1.18-.91-2.209-.91-.693 0-1.303.209-1.717.589-.495.455-.746 1.178-.746 2.146 0 .138.052 14.312 0 21.926-.004.551-.43.994-.956.994h-.008c-.53-.005-.953-.456-.949-1.011.052-7.6 0-21.762 0-21.904 0-1.959.761-3.07 1.395-3.659.761-.7 1.822-1.09 2.982-1.09 1.14 0 2.714.297 3.73 1.704.335.46.893 1.466.893 3.007 0 3.466-.032 11.46-.06 19.194-.024 6.582-.048 12.796-.048 15.089.004.56-.426 1.006-.952 1.006zM18.5 55a1.02 1.02 0 01-.724-.297l-7.122-7.093A5.588 5.588 0 019 43.63c0-1.503.588-2.916 1.654-3.982a5.673 5.673 0 017.846-.14A5.63 5.63 0 0122.349 38a5.64 5.64 0 013.997 1.647A5.588 5.588 0 0128 43.63a5.596 5.596 0 01-1.654 3.981l-7.122 7.093c-.204.2-.464.297-.724.297zm-3.853-14.962a3.587 3.587 0 00-2.549 6.13l6.402 6.375 6.401-6.376a3.587 3.587 0 000-5.08 3.586 3.586 0 00-2.548-1.054c-.963 0-1.871.374-2.549 1.053l-.575.573c-.4.4-1.049.4-1.445 0l-.575-.573a3.639 3.639 0 00-2.562-1.048z" fill="#F05542"/></svg>