<svg width="388" height="566" fill="none" xmlns="http://www.w3.org/2000/svg"><path fill-rule="evenodd" clip-rule="evenodd" d="M186.154 140.303c-22.369-17.101-39.76-40.465-49.151-66.648-3.918-10.925-6.021-22.08-6.899-33.629l-.007-.097c-.675-9.18-1.38-18.756.954-27.784 1.031-3.989 3.066-8.31 7.002-10.32 4.378-2.261 9.332-.547 13.175 1.88 4.446 2.81 8.155 6.668 11.69 10.45 3.295 3.51 6.375 7.19 9.173 11.108 13.057 18.23 22.044 39.772 26.298 61.62 1.922 9.862 2.941 20.155 1.75 30.206-.893 7.501-3.02 15.248-7.755 21.387.23.431.452.865.666 1.301.452.276.838.719 1.098 1.358 2.716 6.62 4.428 13.638 5.819 20.619 1.465 7.388 2.513 14.856 2.855 22.374 12.452 12.627 23.366 26.75 33.175 41.332a426.875 426.875 0 017.198 11.068c-1.302-9.972-1.442-20.022.653-30.15a2.07 2.07 0 01.126-.4 26.074 26.074 0 01-6.935-2.575 3.434 3.434 0 01-.17-.097 3.57 3.57 0 01-.868-.317c-15.087-7.793-21.367-24.555-19.882-40.537 1.297-13.939 8.036-29.673 21.127-36.857 12.161-6.676 26.773-2.761 34.156 8.433 4.492 6.835 5.697 15.408 6.267 23.369.644 9.175-.253 18.689-3.344 27.467-2.744 7.761-7.374 16.227-15.466 19.722a23.89 23.89 0 01-9.002 1.959c.129.544.126 1.138.003 1.73-3.009 14.654-.693 29.362 2.64 43.694 9.993 17.291 18.996 35.182 27.365 53.181a487.31 487.31 0 012.236 4.878c.145-1.521.324-3.043.542-4.567.98-6.842 2.611-13.992 6.619-19.845-.264-.917-.052-1.933.916-2.742-.388-.484-.636-1.106-.655-1.86-.124-5.474-.292-10.943-.46-16.41l-.001-.01c-.32-10.43-.641-20.856-.66-31.299-.044-23.913 1.466-47.964 8.187-71.127 5.799-19.947 15.479-40.878 33.678-52.907.834-.56 2.44-.464 3.18.159 9.386 7.855 12.151 20.894 13.683 32.353 3.528 26.225 2.631 52.439-5.906 78.774-8.422 25.981-23.81 49.132-45.828 66.107.047.601-.119 1.249-.578 1.893-3.821 5.352-5.185 11.87-6.03 18.421-.706 5.473-.933 10.992-.911 16.509 3.395 8.366 6.446 16.864 8.979 25.522 3.446 11.779 5.423 23.665 6.734 35.747 3.167-10.839 8.417-21.056 16.093-29.898.18-.209.373-.387.575-.537-3.336-13.302 5.685-28.636 14.665-38.249 9.484-10.165 25.837-20.245 39.701-12.122 12.117 7.117 14.889 20.931 11.316 33.785-3.573 12.853-12.816 25.11-24.818 31.707-5.455 3.004-11.942 4.795-18.207 3.989-7.203-.928-13.235-4.759-17.888-10.02l-.013-.026a3.384 3.384 0 01-.465-.667 3.153 3.153 0 01-.707-.721 23.558 23.558 0 01-.92-1.377c-13.216 16.615-17.861 37.39-16.636 58.13.005.084.007.167.007.248l-.003.104-.006.098c1.614 24.276 3.271 48.592 8.549 72.37 2.935 13.22 8.088 25.948 15.128 37.579 6.807 11.276 16.051 22.649 28.55 28.282 2.143.958 3.356 4.637.416 5.682-7.863 2.811-15.518 2.674-23.743 2.183a3.458 3.458 0 01-1.119-.244c-.507-.041-1.035-.239-1.554-.639-2.806-2.142-5.519-4.429-8.037-6.893-14.553-14.187-20.861-32.512-23.518-51.661-.651.044-1.298-.108-1.814-.524-11.573-9.4-22.468-20.05-31.79-31.693l-.196-.186a4.705 4.705 0 01-.165-.058c-9.649-3.677-20.008-3.913-30.338-4.147-4.991-.113-9.975-.226-14.869-.727-13.816-1.418-27.503-4.387-40.196-9.94-11.961-5.213-22.819-12.345-32.449-20.789-9.629-8.444-17.902-18.116-25.805-28.085a332.117 332.117 0 00-3.909-4.805v-.001c-5.954-7.229-11.918-14.47-14.773-23.494-.65-2.079 1.426-3.647 3.292-3.755 14.093-.827 28.197 1.249 41.716 4.905 24.293 6.599 47.261 18.25 67.703 32.459 10.959 7.622 21.663 15.86 31.211 25.128 4.744 4.592 9.401 9.505 13.171 14.923 1.02 1.466 1.974 2.982 2.928 4.499v.001l.001.001.001.001.001.001v.001l.001.001.001.002.001.001v.001l.001.001.001.001v.001l.001.001.002.002c.487.775.975 1.55 1.471 2.319.26.182.507.424.732.734a175.467 175.467 0 005.082 6.705c.292.283.591.56.899.831.503.44.791.92.907 1.402 7.867 9.571 16.801 18.482 26.288 26.442a218.783 218.783 0 01-.717-11.428c-.285-7.344-.387-14.697-.489-22.052v-.014c-.107-7.742-.214-15.486-.535-23.223a605.802 605.802 0 00-1.244-21.187c-2.893-9.392-9.098-17.828-15.796-24.92-7.422-7.885-16.535-15.231-27.004-18.919a22.172 22.172 0 01-1.21 1.614c-.069.084-.14.163-.212.238a3.465 3.465 0 01-.619.825c-12.89 12.854-33.633 11.068-49.158 4.65-12.87-5.319-27.517-15.283-31.186-28.995-3.669-13.711 9.2-25.595 22.499-27.265 16.444-2.067 34.625 4.862 47.549 14.261 6.002 4.347 11.797 9.889 14.433 16.846 1.544 4.071 1.714 8.257.579 12.18 11.243 4.107 21.127 11.999 29.104 20.444 3.344 3.54 6.565 7.41 9.375 11.549a443.98 443.98 0 00-1.59-12.578 358.845 358.845 0 00-3.924-22.543c-.77-.341-1.393-1.01-1.625-2.058-5.175-23.477-25.823-36.954-45.349-49.699-3.219-2.101-6.408-4.183-9.492-6.286a2.725 2.725 0 01-.635-.415c-11.388-3.841-23.628-3.162-35.684-2.493-3.729.207-7.44.413-11.102.484-27.31.519-54.604-3.122-78.579-16.274-20.365-11.184-39.329-28.098-48.713-49.341-.872-1.955.17-3.829 2.192-4.456 11.239-3.486 23.769-1.126 35.076 1.005l1.627.306c6.001 1.119 12.031 2.122 18.059 3.125 20.287 3.373 40.558 6.744 59.68 14.563 24.563 10.043 45.341 27.256 61.293 47.836l.005.001.02.007c.806.31 1.351.823 1.67 1.424 2.603 1.765 5.256 3.518 7.924 5.282 13.5 8.923 27.387 18.101 37.021 30.365a337.532 337.532 0 00-15.592-42.719 371.512 371.512 0 00-19.21-37.395 2.956 2.956 0 01-.654-1.11 374.533 374.533 0 00-12.899-20.282c-.894.136-1.836-.156-2.577-1.099-5.291-6.72-11.833-12.588-18.901-17.508-6.503-4.546-14.786-9.762-23.155-9.563-5.492.135-10.737 2.355-15.856 4.521-1.825.772-3.634 1.537-5.432 2.199-8.024 2.975-16.462 4.092-24.953 4.776-18.474 1.489-36.997-.272-55.089-3.624-16.037-2.966-31.978-7.125-47.307-12.555-14.637-5.168-29.803-11.793-40.67-22.962-.927-.949-1.066-2.697-.252-3.774 5.766-7.597 18.212-8.337 27.242-8.875l1.303-.078c3.433-.205 6.852-.298 10.277-.392 1.28-.035 2.56-.07 3.843-.111 2.735-.083 5.472-.247 8.21-.411h.002c2.95-.176 5.903-.353 8.857-.429 15.564-.418 31.066.455 46.485 2.679 15.42 2.224 30.663 6.01 44.944 11.634 14.28 5.624 27.793 12.907 40.599 21.213.086.055.168.112.245.171 2.391.161 4.835.645 7.391 1.518 6.289 2.149 12.144 5.525 17.53 9.372-17.296-21.521-37.038-41.189-59.038-58.208a3.139 3.139 0 01-1.186-.552c-1.646-1.202-3.176-2.524-4.65-3.901-.278.123-.595.21-.955.255-10.787 1.332-21.7 1.467-32.532.776-21.664-1.381-43.507-5.7-63.513-13.828-18.226-7.391-36.067-18.394-46.044-35.494-.932-1.582.05-3.281 1.428-4.178 7.849-5.207 18.614-5.04 27.613-4.273 8.152.697 16.162 2.265 24.146 3.846 12.98 2.57 25.79 5.959 38.002 10.906 11.58 4.703 22.683 10.806 32.971 17.788 5.182 3.513 10.195 7.322 14.845 11.476 1.624 1.446 3.151 2.994 4.679 4.542v.001c1.47 1.49 2.94 2.98 4.495 4.378.238.101.477.238.714.417a413.785 413.785 0 014.245 3.236c.223.072.447.17.671.297a173.754 173.754 0 019.478 5.809c8.191 5.438 15.823 11.554 22.969 18.177-.505-4.859-1.312-9.69-2.265-14.465-.865-4.348-1.825-8.745-3.127-13.024a3.221 3.221 0 01-.706-1.212c-.983-2.975-2.22-5.812-3.773-8.529zm40.051 160.667c-7.289-8.469-15.436-16.228-24.466-22.931-10.288-7.632-21.558-13.829-33.702-18.251-12.876-4.697-26.364-7.798-39.886-10.212-5.513-.983-11.036-1.875-16.559-2.767-6.086-.983-12.171-1.966-18.24-3.069l-.04-.007c-8.701-1.568-18.293-3.296-27.205-1.658 5.079 10.004 12.404 18.757 20.767 26.364 18.178 16.536 41.014 27.082 65.676 30.59 13.999 1.998 28.402 2.16 42.383 1.468l2.586-.131c9.558-.49 19.301-.989 28.686.604zm-43.511-94.719c-11.946-7.287-24.483-13.612-37.736-18.41-27.488-9.947-57.475-13.099-86.783-12.102l-.185.006h-.002c-9.652.341-19.37.684-29.02 1.285-4.609.293-9.25.751-13.76 1.797-2.315.541-5.158 1.243-7.28 2.656 12.064 11.137 29.005 17.184 44.524 22.043 32.99 10.308 69.353 17.462 104.095 11.405 5.51-.959 10.702-3.009 15.788-5.018 2.163-.854 4.306-1.7 6.447-2.452a50.436 50.436 0 013.912-1.21zm-38.437-61.172a94.804 94.804 0 013.047 2.901c-18.023 1.826-36.616.319-54.269-3.069-20.003-3.826-40.171-10.236-57.01-21.622-7.396-5.003-14.118-11.081-19.02-18.459 5.928-2.602 12.997-2.517 19.307-2.103 7.971.508 15.794 1.973 23.596 3.498 11.98 2.362 23.817 5.335 35.223 9.635 11.567 4.35 22.489 10.199 32.778 16.919 5.711 3.724 11.295 7.757 16.348 12.3zm43.733-11.288c-17.629-13.922-31.754-32.078-40.977-52.253-8.324-18.211-12.028-38.542-11.113-58.521.213-4.853.928-18.848 9.25-15.53 4.298 1.702 7.819 5.356 10.932 8.588l.028.029c3.12 3.239 6.093 6.517 8.805 10.039 12.427 16.102 20.891 35.593 25.707 55.147 2.572 10.436 4.173 21.237 3.472 32.006-.476 7.141-2.017 14.467-6.104 20.495zm107.82 144.585c9.394-7.913 17.571-17.014 24.209-27.287 14.927-23.128 22.032-50.457 22.656-77.493.248-10.832-.405-21.884-2.017-32.589-1.242-8.25-3.077-18.694-9.266-25.082-8.576 6.242-14.831 15.238-19.597 24.437-9.404 18.182-13.844 38.818-15.684 58.911-2.034 22.115-1.353 44.278-.673 66.414v.007c.13 4.229.26 8.456.372 12.682zm-56.141-80.465c.3.067.605.18.91.345 6.017 3.285 14.103 2.932 19.437-1.606 6.465-5.504 9.503-15.491 10.7-23.284 1.198-7.793 1.03-15.757-.35-23.496-1.118-6.162-3.026-12.16-7.786-16.587-8.206-7.617-20.267-5.461-27.93 1.853-8.948 8.535-12.869 22.144-12.427 33.988.45 11.954 6.247 23.037 17.272 28.725l.046-.007.128.069zm89.348 160.709a3.36 3.36 0 00-.409-.744c-7.438-10.323 1.062-25.61 7.815-34.101 6.754-8.491 19.725-19.81 31.842-15.945 10.871 3.472 14.246 15.526 12.252 25.453-2.228 11.132-9.396 21.681-18.76 28.438-4.605 3.316-10.315 5.763-15.985 5.687-6.419-.096-11.815-3.445-15.992-8.144a3.314 3.314 0 00-.763-.644zm-81.547 16.314c.089-.152.195-.305.32-.458 4.238-5.157 4.627-10.66 1.455-16.374-3.662-6.564-10.141-11.344-16.74-15.185-6.599-3.841-13.856-6.673-21.36-8.389-6.331-1.432-13.393-2.161-19.744-.276-4.936 1.462-10.67 5.779-12.635 10.089-1.964 4.311-1.2 8.723 1.094 13.03 5.976 11.138 18.819 18.621 31.172 22.453 12.086 3.748 26.669 4.189 36.438-4.89zm12.517 88.941l-.024-.039-.006-.008c-1.306-2.081-2.636-4.201-4.195-6.276-4.401-5.857-9.615-11.163-15.01-16.135-18.124-16.682-39.459-30.956-61.971-41.46-20.6-9.626-43.382-16.649-66.505-16.314 2.051 4.514 5.051 8.62 8.105 12.441 2.306 2.886 4.642 5.757 6.977 8.628 1.557 1.914 3.115 3.828 4.663 5.746 15.86 19.586 34.891 36.685 59.398 45.269 12.646 4.448 26.126 6.654 39.559 7.232 2.371.102 4.752.164 7.135.225h.001c7.616.196 15.254.392 22.651 1.927-.26-.41-.518-.822-.778-1.236zm75.9 95.27c4.39.267 8.747.529 13.042.062a44.048 44.048 0 01-.779-.522c-11.695-7.982-20.344-19.861-26.889-32.03-6.546-12.169-10.968-25.143-13.662-38.613a291.965 291.965 0 01-2.294-13.051c.093 5.38.238 10.758.524 16.127.671 12.483 1.985 24.649 6.775 37 4.771 12.302 12.717 22.875 23.283 31.027z" fill="#F05542" opacity=".9"/></svg>