<svg width="35" height="35" fill="none" xmlns="http://www.w3.org/2000/svg"><g clip-path="url(#clip0_40_115)"><path d="M15.081 30.139a2.19 2.19 0 01-1.188.356h-.012a2.19 2.19 0 01-1.176-.356.513.513 0 10-.563.857 3.18 3.18 0 001.734.524h.017a3.23 3.23 0 001.752-.524.513.513 0 10-.564-.857zM10.817 26.5a.513.513 0 100 1.026.513.513 0 000-1.026zm13.016-7.37c-1.426-.635-3.267-.732-4.353-.269a9.015 9.015 0 00-8.218-1.55 9.012 9.012 0 00-2.954 1.55c-1.086-.463-2.928-.366-4.354.27-1.295.576-2.351 1.64-3.055 3.078-.698 1.426-1 3.123-.87 4.909a.512.512 0 00.652.456 14.311 14.311 0 004.191-1.976 9.006 9.006 0 00-.007.35c0 4.979 4.05 9.029 9.028 9.029 4.979 0 9.029-4.05 9.029-9.029 0-.117-.003-.234-.007-.35a16 16 0 001.27.778 14.28 14.28 0 002.92 1.198.512.512 0 00.653-.456c.129-1.786-.172-3.483-.87-4.909-.704-1.438-1.76-2.502-3.055-3.079zm-9.94-1.185a8.017 8.017 0 017.8 6.204 8.635 8.635 0 01-4.021.167c-1.436-.292-2.709-.963-3.68-1.941a6.673 6.673 0 01-.849-1.048l-.014-.022a7.663 7.663 0 01-1.134-3.131 7.992 7.992 0 011.898-.229zm-2.889.54a8.764 8.764 0 001.039 3.009 10.59 10.59 0 01-5.914 2.514 8.037 8.037 0 014.875-5.523zm-7.893 6.992a13.26 13.26 0 01-2.086.915c-.01-1.362.26-2.642.795-3.732.596-1.219 1.479-2.116 2.551-2.593 1.015-.452 2.235-.556 3.05-.405a9.014 9.014 0 00-2.389 4.56c-.609.465-1.25.884-1.92 1.255zm10.782 8.474a8.003 8.003 0 01-7.952-8.899 11.613 11.613 0 006.674-2.699c.2.262.417.51.649.744 1.115 1.123 2.569 1.892 4.204 2.224a9.277 9.277 0 001.844.183 9.915 9.915 0 002.546-.336 8.012 8.012 0 01-7.965 8.784zm10.783-8.474c-.67-.37-1.311-.79-1.92-1.253a9.017 9.017 0 00-2.39-4.562c.816-.151 2.036-.047 3.05.405 1.072.477 1.954 1.374 2.551 2.593.534 1.09.805 2.37.794 3.732a13.237 13.237 0 01-2.085-.915zm9.82-19.36c0-.002 0-.004-.002-.006a9.132 9.132 0 00-16.388-1.814 9.143 9.143 0 00-1.373 4.813c0 5.036 4.097 9.134 9.133 9.134 5.037 0 9.134-4.098 9.134-9.134a9.13 9.13 0 00-.504-2.993zm-8.63-5.115a8.12 8.12 0 017.443 4.893 10.02 10.02 0 01-5.493-.333c-2.672-.955-4.246-2.842-4.988-3.969a8.064 8.064 0 013.038-.591zm-4.059 1.091c.45 1.48.15 3.094-.82 4.237-.996 1.174-2.368 1.46-3.131 1.523a8.13 8.13 0 013.951-5.76zm4.06 15.125a8.117 8.117 0 01-8.105-8.33c.912-.046 2.694-.347 4.007-1.894a5.443 5.443 0 001.267-3.463 10.93 10.93 0 004.434 2.997c2.529.904 4.819.656 6.189.339a8.11 8.11 0 01-7.793 10.351zm3.076-8.62a.513.513 0 100 1.024.513.513 0 000-1.025zM16.97 26.5a.513.513 0 100 1.027.513.513 0 000-1.027zm10.085-13.793a2.186 2.186 0 01-1.189.356h-.012a2.191 2.191 0 01-1.175-.356.513.513 0 00-.564.857c.515.34 1.117.521 1.734.525h.017a3.223 3.223 0 001.752-.525.513.513 0 00-.563-.857zm-4.265-4.11a.513.513 0 100 1.026.513.513 0 000-1.026z" fill="#2C2C2C"/></g><defs><clipPath id="clip0_40_115"><path fill="#fff" d="M0 0h35v35H0z"/></clipPath></defs></svg>