<svg width="31" height="31" fill="none" xmlns="http://www.w3.org/2000/svg"><path d="M30.497 29.916l-1.134-4.459-.004-.013a5.318 5.318 0 00-4.024-3.752l-1.6-.337v-.527a.484.484 0 00-.485-.484h-2.906a.482.482 0 00-.4.212l-.57-.12v-.74a4.848 4.848 0 002.423-4.194h.243a1.698 1.698 0 001.695-1.695v-1.453a1.687 1.687 0 00-.512-1.213h.996a.485.485 0 000-.97h-.969V7.267c0-3.74-3.477-6.782-7.75-6.782S7.75 3.526 7.75 7.266v2.906h-.969a.484.484 0 100 .969h.994a1.692 1.692 0 00-.509 1.208v1.453a1.697 1.697 0 001.695 1.696h.242a4.845 4.845 0 002.42 4.193v.744l-.568.119a.484.484 0 00-.399-.21H7.75a.484.484 0 00-.484.484v.523l-1.604.336a5.316 5.316 0 00-4.026 3.75l-.004.013-1.136 4.458a.484.484 0 00.47.604l29.062.007a.485.485 0 00.469-.603zm-27.928-4.22a4.4 4.4 0 01.424-.993H4.36v2.422H2.205l.364-1.429zm4.697 3.85l-.488-.002v-1.937a.485.485 0 00-.969 0v1.938l-4.22-.002.37-1.45h2.885a.485.485 0 00.484-.484v-3.39a.485.485 0 00-.484-.485H3.76a4.352 4.352 0 012.1-1.099l1.405-.294v7.204zm15.5-17.193v1.454a.727.727 0 01-.726.726h-.243v-1.937l.001-.97h.242a.727.727 0 01.726.727zM21.71 4.93l-.544.861H19.63l-.631-.907L20.226 3.1a5.913 5.913 0 011.483 1.828zm-7.525-3.366l1.15 1.727-1.942 1.554H9.336c.896-1.67 2.69-2.916 4.848-3.28zM8.72 7.266c0-.493.072-.982.214-1.454h4.63c.11 0 .216-.037.302-.105l2.422-1.938a.485.485 0 00.1-.647l-1.11-1.665a7.532 7.532 0 014.161 1.08l-1.427 2.072a.485.485 0 00.001.551l.967 1.391a.485.485 0 00.398.208h2.055a.485.485 0 00.41-.226l.294-.466c.097.392.145.795.145 1.199v2.906h-2.97l-.425-2.975a.484.484 0 00-.48-.416h-1.453a.485.485 0 00-.343.142l-1.453 1.453a.485.485 0 00-.141.343v1.453H8.719V7.266zm9.613 2.906h-2.348V8.919l1.17-1.169h.832l.346 2.422zm-9.128 2.42v1.937H8.96a.727.727 0 01-.726-.726V12.35a.728.728 0 01.727-.727h.242v.969zm.968 2.907l.001-4.358H20.83v4.36a3.881 3.881 0 01-2.164 3.477l-.008.003c-.53.26-1.113.395-1.704.395h-.001l-2.906-.002a3.88 3.88 0 01-3.874-3.875zm8.234 5.35c-.007.559-.144 1.917-2.906 1.917-.719 0-2.906 0-2.906-1.998 0-.01 0-.018-.002-.027v-.621c.47.148.96.224 1.454.223l2.906.001h.001a4.86 4.86 0 001.452-.221v.726zm-7.265.677l.545-.115c.207 1.064 1.039 2.323 3.814 2.323 2.774 0 3.606-1.258 3.814-2.321l.545.115v.753a1.94 1.94 0 01-1.937 1.938h-4.844a1.94 1.94 0 01-1.937-1.938v-.755zm1.453 8.02H11.14v-1.937h1.453v1.937zm7.265 0h-1.453V27.61h1.453v1.938zm2.907 0h-1.938v-2.421a.484.484 0 00-.484-.484h-2.422a.484.484 0 00-.485.484v2.422h-3.874v-2.422a.484.484 0 00-.485-.484h-2.422a.484.484 0 00-.484.484v2.42H8.234v-8.233h1.938v.97a2.91 2.91 0 002.906 2.905h4.844a2.91 2.91 0 002.906-2.906v-.968h1.938v8.234zm5.66-3.843l.362 1.422h-2.14v-2.422h1.35c.184.314.328.65.428 1zm-3.242 3.846v-1.937a.484.484 0 10-.968 0v1.937h-.482v-7.204l1.4.295a4.36 4.36 0 012.094 1.094h-1.065a.485.485 0 00-.484.485v3.39a.485.485 0 00.485.485h2.87l.37 1.456h-4.22z" fill="#2C2C2C"/><path d="M12.595 11.624a.97.97 0 100 1.939.97.97 0 000-1.939zm5.812 1.94a.969.969 0 100-1.939.969.969 0 000 1.938zm-3.876 3.873l1.937.001a.484.484 0 000-.969h-1.937a.484.484 0 000 .968z" fill="#2C2C2C"/></svg>