<svg width="66" height="61" fill="none" xmlns="http://www.w3.org/2000/svg"><path fill-rule="evenodd" clip-rule="evenodd" d="M22 22c-2.205 0-4-1.794-4-4 0-2.205 1.795-4 4-4s4 1.795 4 4c0 2.206-1.795 4-4 4zm0-5.968A1.973 1.973 0 0020.032 18c0 1.084.884 1.968 1.968 1.968A1.973 1.973 0 0023.968 18 1.97 1.97 0 0022 16.032zM24.943 47h-5.882C18.473 47 18 46.554 18 46s.473-1 1.061-1h5.878c.588 0 1.061.446 1.061 1s-.473 1-1.057 1z" fill="#F05542"/><path fill-rule="evenodd" clip-rule="evenodd" d="M24.606 46.994h-.061a1.051 1.051 0 01-.983-1.116l.568-9.692.35-7.294a1.06 1.06 0 01.541-.874 1.045 1.045 0 011.022.004l4.696 2.676c.013.004.03 0 .04-.013l.091-.097c.026-.026.035-.057.035-.097a.125.125 0 00-.052-.087l-.053-.04-6.513-5.123a.834.834 0 00-.454-.136h-4.67a.854.854 0 00-.49.158l-6.442 4.684a.348.348 0 00-.136.228.33.33 0 00.074.255c.005.004.005.004.01.004l5.259-2.447a1.03 1.03 0 01.983.057c.297.18.489.501.502.852l.35 7.294.567 9.692a1.053 1.053 0 01-.983 1.116 1.052 1.052 0 01-1.11-.988l-.567-9.697V36.3l-.275-5.738-3.844 1.788a2.096 2.096 0 01-2.503-.571 2.445 2.445 0 01-.538-1.868 2.441 2.441 0 01.988-1.67l6.443-4.683A2.906 2.906 0 0119.167 23h4.666c.598 0 1.175.18 1.664.523l.053.04 6.521 5.136c.52.373.852.949.918 1.59a2.246 2.246 0 01-.607 1.77l-.092.098a2.131 2.131 0 01-2.534.417l-3.267-1.858-.267 5.588v.013l-.568 9.697c-.035.545-.498.98-1.048.98z" fill="#F05542"/><path fill-rule="evenodd" clip-rule="evenodd" d="M22 47c-.554 0-1-.489-1-1.097v-7.805c0-.608.446-1.098 1-1.098s1 .49 1 1.098v7.805c0 .603-.446 1.097-1 1.097zm23-25c-2.205 0-4-1.794-4-4 0-2.205 1.795-4 4-4s4 1.795 4 4c0 2.206-1.795 4-4 4zm0-5.968A1.973 1.973 0 0043.032 18c0 1.084.884 1.968 1.968 1.968A1.973 1.973 0 0046.968 18 1.973 1.973 0 0045 16.032zM47.939 47H42.06c-.587 0-1.06-.446-1.06-1s.473-1 1.061-1h5.878c.588 0 1.061.446 1.061 1s-.473 1-1.061 1z" fill="#F05542"/><path fill-rule="evenodd" clip-rule="evenodd" d="M47.804 46.998h-.06c-.561-.035-.992-.531-.957-1.116l.553-9.694.34-7.295a1.07 1.07 0 01.529-.874.997.997 0 01.996.004l4.578 2.676c.013.005.03-.004.038-.013l.09-.096c.026-.027.034-.058.034-.097a.126.126 0 00-.051-.088l-.051-.04-6.35-5.128a.799.799 0 00-.442-.136h-4.553a.802.802 0 00-.464.15l-5.838 4.675c-.009.009-.017.013-.03.022a.337.337 0 00-.06.483s.005.005.009.005L40.786 28a.99.99 0 01.976.031c.298.18.49.505.506.861l.341 7.295.554 9.694c.034.58-.396 1.081-.958 1.116-.563.035-1.048-.408-1.082-.988l-.554-9.699v-.013l-.264-5.678-3.291 1.714c-.009.005-.022.009-.03.018a2.009 2.009 0 01-2.44-.571 2.491 2.491 0 01-.524-1.868c.08-.66.426-1.266.945-1.657l5.843-4.675c.008-.01.017-.014.03-.023A2.785 2.785 0 0142.51 23h4.552c.584 0 1.146.18 1.623.523l.05.04 6.359 5.137c.507.373.83.949.894 1.59a2.283 2.283 0 01-.592 1.772l-.09.096a2.04 2.04 0 01-2.405.453c-.022-.009-.043-.022-.064-.035l-3.185-1.86-.26 5.59v.014l-.554 9.698c-.047.545-.498.98-1.035.98z" fill="#F05542"/><path fill-rule="evenodd" clip-rule="evenodd" d="M45 47c-.554 0-1-.489-1-1.097v-7.805c0-.608.446-1.098 1-1.098s1 .49 1 1.098v7.805c0 .603-.446 1.097-1 1.097zm16.964-21c-.484 0-.92-.343-1.016-.842a28.4 28.4 0 00-3.505-9.152A28.702 28.702 0 0051.2 8.692 28.272 28.272 0 0033.004 2.09c-3.384 0-6.7.59-9.846 1.754A28.602 28.602 0 008.561 16.006a28.459 28.459 0 00-3.505 9.152 1.038 1.038 0 11-2.036-.404 30.518 30.518 0 013.76-9.82 30.746 30.746 0 016.696-7.845A30.354 30.354 0 0133 0a30.354 30.354 0 0119.524 7.09 30.66 30.66 0 016.695 7.844 30.518 30.518 0 013.76 9.82A1.042 1.042 0 0161.965 26z" fill="#F05542"/><path fill-rule="evenodd" clip-rule="evenodd" d="M33 61a30.355 30.355 0 01-19.524-7.089 30.661 30.661 0 01-6.695-7.844 30.521 30.521 0 01-3.76-9.822 1.042 1.042 0 01.816-1.224 1.041 1.041 0 011.219.82 28.399 28.399 0 003.505 9.153 28.702 28.702 0 006.242 7.315A28.271 28.271 0 0033 58.91a28.271 28.271 0 0018.197-6.602 28.604 28.604 0 006.241-7.315 28.46 28.46 0 003.506-9.152 1.038 1.038 0 112.036.404 30.52 30.52 0 01-3.76 9.82 30.747 30.747 0 01-6.696 7.845A30.353 30.353 0 0133 61.001zM4 32c-2.206 0-4-1.794-4-4s1.794-4 4-4 4 1.794 4 4-1.794 4-4 4zm0-6.043A2.046 2.046 0 001.957 28c0 1.126.918 2.043 2.043 2.043A2.047 2.047 0 006.043 28 2.044 2.044 0 004 25.957z" fill="#F05542"/><path fill-rule="evenodd" clip-rule="evenodd" d="M62 37c-2.206 0-4-1.794-4-4s1.794-4 4-4 4 1.794 4 4-1.794 4-4 4zm0-6.043A2.046 2.046 0 0059.957 33c0 1.126.918 2.043 2.043 2.043A2.046 2.046 0 0064.043 33 2.046 2.046 0 0062 30.957z" fill="#F05542"/></svg>