<svg width="372" height="363" fill="none" xmlns="http://www.w3.org/2000/svg"><path fill-rule="evenodd" clip-rule="evenodd" d="M224.155 25.325c12.362 6.469 24.724 12.937 37.838 17.72v.02c3.541 1.291 2.006 7.055-1.574 5.743-13.396-4.889-26.103-11.447-38.751-18.066-21.874-11.447-44.632-23.273-69.732-24.644-6.039-.338-12.137-.06-18.077 1.093-3.089.616-6.236 1.351-9.187 2.484-1.436.557-4.603 1.908-4.76 3.796-.141 1.803 2.921 2.515 4.516 2.887.181.042.344.08.48.114a91.188 91.188 0 009.541 1.948c6.629.994 13.356 1.193 20.044.795 2.518-.159 3.954 3.399 2.085 5.088-4.249 3.836-1.711 11.487 4.446 10.454 2.913-.498 4.522 2.922 3.282 4.73 11.381 3.058 22.581 6.888 33.625 10.811 4.328 1.536 8.614 3.169 12.903 4.803h.004c1.533.585 3.066 1.169 4.603 1.749 6.211 2.341 12.639 4.623 19.264 5.371 6.231.689 12.047-.433 17.568-3.344 4.507-2.378 8.58-5.45 12.638-8.51.913-.688 1.826-1.377 2.742-2.056 9.859-7.28 22.123-14.579 34.9-13.556 5.285.413 9.938 2.48 14.473 5.293 1.023.635 2.033 1.292 3.043 1.95 3.294 2.145 6.583 4.287 10.308 5.619a49.08 49.08 0 014.661-12.698c-3.94-2.943-7.369-6.549-9.096-11.306-1.665-4.612-1.162-10.285 1.82-14.034 2.983-3.748 8.134-4.789 12.124-1.982 4.629 3.268 6.325 8.571 6.093 13.95a49.964 49.964 0 0110.976-7.251c2.316-1.138 4.889-2.295 7.403-2.295 2.513 0 5.007 1.079 6.452 3.177 2.771 4.04.257 9.473-2.989 12.258-3.246 2.785-7.343 4.177-11.479 5.02-3.495.727-7.042 1.288-10.588 1.85h-.003c-1.259.199-2.518.398-3.774.605a44.848 44.848 0 00-5.551 13.312l12.697.508c2.928.121 3.962 4.025 1.483 5.663a193.308 193.308 0 01-16.657 9.801 3.076 3.076 0 01-.108.412c-2.546 7.596-1.603 15.64-.692 23.413l.007.064v-.02c.187 1.586-1.578 2.937-3.114 2.937-1.805 0-2.926-1.351-3.113-2.937-.766-6.53-1.442-13.217-.383-19.72-1.535 1.376-2.401 3.022-3.348 4.895-2.307 4.584-4.654 9.168-7.079 13.694-4.772 8.932-9.819 17.707-15.399 26.147-9.978 15.091-21.729 29.276-35.571 41.002-2.701 2.28-5.804 4.282-8.813 6.223a244.33 244.33 0 00-2.919 1.903c-3.845 2.558-7.749 5.056-11.831 7.201-8.971 4.722-18.574 7.338-28.709 9.286-7.714 1.483-15.52 2.418-23.322 3.353l-.005.001c-2.446.293-4.892.586-7.334.896-5.205.649-10.411 1.416-15.557 2.44a153.45 153.45 0 00-7.828 1.751 36.93 36.93 0 01-1.659.35c-1.728.34-3.818.751-4.789 1.46-1.186.874-1.866 2.55-2.492 4.094-.29.714-.568 1.4-.879 1.965-.73 1.338-1.834 2.302-3.076 3.168-2.307 1.633-5.068 2.617-7.868 2.951-4.213.494-7.818-1.067-9.677-4.124-.247.275-.492.555-.736.834-1.199 1.371-2.402 2.747-4 3.684-2.84 1.652-6.586 1.711-9.346-.138-2.63-1.76-3.716-4.708-3.964-7.852a62.003 62.003 0 01-5.935 4.507c-3.845 2.558-8.439 5.175-13.072 5.844-7.06 1.023-10.214-4.525-8.854-11.077 1.36-6.552 6.487-11.825 11.18-16.232 5.837-5.469 12.521-10.014 19.54-13.851 9.759-5.339 20.113-9.423 30.458-13.505 4.37-1.724 8.738-3.447 13.059-5.264 4.595-1.928 9.642-4.27 14.02-7.044 3.687-2.341 9.168-6.04 9.405-10.9.138-2.616-.986-3.954-3.549-3.935-.867.006-1.734.059-2.598.113-2.439.151-4.858.3-7.202-.644-5.044-2.016-8.001-7.226-8.132-12.449-7.303 2.699-15.338 3.992-21.957-1.107-3.687-2.852-5.58-6.827-5.008-11.49.224-1.805.73-3.554 1.236-5.302.233-.806.467-1.611.672-2.422-9.165 2.904-20.815 4.27-28.113-2.172-7.73-6.815-3.695-15.162.58-22.788-11.255 4.705-23.298 7.657-35.48 8.21-4.437.196-10.017-.237-12.502-4.546-3.076-5.332.907-10.959 4.89-14.382 17.983-15.444 41.684-21.288 64.99-19.891 7.711.46 15.334 1.552 22.875 3.09-.481-.6-.903-1.258-1.253-1.971-1.386-2.825-1.517-6.062-.584-8.962a101.69 101.69 0 01-19.342-1.73c-.387-.073-.794-.146-1.218-.222-5.529-.99-13.836-2.477-14.42-9.16-.531-6.101 5.901-9.32 10.72-10.87 6.531-2.108 13.415-3.141 20.261-3.34 13.671-.397 27.342 2.604 40.206 7.175 13.522 4.816 26.229 11.465 38.937 18.114zm113.615 4.358l.024-.044c1.782-3.18 2.692-6.654 2.382-10.265-.213-2.473-1.413-5.614-3.679-7.007-.581-.354-1.027-.51-1.55-.55-.348-.04-.968.118-1.258.275-1.027.53-1.743 1.393-2.266 2.512-1.337 2.866-.659 6.34.91 9.107 1.341 2.366 3.29 4.316 5.437 5.972zm9.982-1.678c2.672-2.687 5.661-4.962 8.946-6.884 1.643-.961 3.345-1.883 5.106-2.59 1.049-.411 2.791-1.078 3.84-.372.772.51.455 1.726.059 2.589-.574 1.255-1.682 2.334-2.83 3.08-2.652 1.745-5.799 2.51-8.887 3.098-2.093.404-4.2.767-6.311 1.115a.92.92 0 00.037-.037h.04zM329.248 53.49c-3.974-1.343-7.586-3.627-11.183-5.902-5.755-3.638-11.47-7.252-18.568-6.95-12.228.502-22.329 7.997-31.867 15.074-1.29.957-2.569 1.906-3.842 2.829-4.594 3.325-9.444 6.375-14.847 8.204-5.698 1.909-11.614 1.89-17.509.945-8.521-1.368-16.678-4.585-24.767-7.775-3.198-1.262-6.386-2.519-9.582-3.656-21.098-7.516-42.787-14.874-65.245-16.861-11.101-.984-22.498-.59-33.205 2.026-10.707 2.617-20.29 7.535-29.143 14.028l-.127.094-.09.065c-2.213 1.617-8.09 5.912-5.994 9.049 1.463 2.19 6.053 1.7 8.88 1.397.45-.048.855-.091 1.196-.118 13.21-1.102 26.165-5.017 37.957-11.038 2.799-1.436 5.185 1.377 4.042 4.033-.647 1.487-1.744 3.26-2.933 5.184-3.817 6.171-8.584 13.879-2.45 18.544 3.647 2.755 8.735 2.715 13.25 2.243 4.515-.472 9.011-1.731 13.231-3.423 1.794-.709 3.785 1.101 3.746 2.852-.064 2.856-.807 5.532-1.557 8.236l-.001.002c-.18.649-.36 1.3-.532 1.954-.828 3.128-1.065 5.883 1.518 8.244 6.073 5.528 15.064 1.888 21.453-1.023 2.682-1.22 5.422 1.278 4.042 4.033-1.676 3.364 0 7.811 3.037 9.837 1.773 1.167 4.078.935 6.29.713 1.034-.104 2.047-.206 2.977-.162 6.822.295 10.056 7.044 8.064 13.162-1.695 5.195-6.27 8.972-10.588 11.884-4.318 2.912-9.05 5.174-13.842 7.24-4.932 2.119-9.928 4.089-14.923 6.058-8.085 3.188-16.168 6.375-23.98 10.193-6.645 3.247-13.151 6.926-19.008 11.471a74.245 74.245 0 00-8.439 7.693l-.045.048c-2.038 2.19-4.203 4.517-5.456 7.271-.75 1.652-1.46 3.777-1.124 5.587.256 1.495 1.282 1.535 3.096 1.122 8.084-1.85 15.38-8.342 20.861-14.225 2.07-2.204 5.679.098 4.949 2.872-.631 2.46-1.932 8.165.671 9.956 1.873 1.298 3.904-.689 5.106-1.948.402-.422.791-.851 1.18-1.279v-.001h.001c1.387-1.528 2.76-3.039 4.577-4.131 1.913-1.141 4.476.335 4.456 2.558-.019 2.499 1.026 3.64 3.53 3.64 2.307-.02 5.185-.925 6.861-2.597.861-.859 1.393-2.095 1.923-3.328.368-.856.736-1.711 1.213-2.437 1.084-1.633 2.366-3.108 4.278-3.758 5.206-1.731 10.766-2.852 16.149-3.856 7.358-1.364 14.773-2.296 22.182-3.228 12.465-1.567 24.91-3.131 37.03-6.747 8.696-2.617 16.445-7.024 23.957-12.041.923-.614 1.871-1.228 2.826-1.846 3.022-1.958 6.112-3.959 8.689-6.142 3.392-2.872 6.586-5.961 9.701-9.089 12.068-12.179 22.183-26.069 30.957-40.766 4.417-7.418 8.518-15.012 12.482-22.685.514-1 1.007-2.045 1.503-3.098l.001-.001c1.31-2.781 2.651-5.625 4.509-7.88 2.371-2.874 5.854-4.722 9.015-6.4l.765-.407c.319-.17.635-.278.942-.333a186.746 186.746 0 007.701-4.28l-8.245-.33-.019-.02a2.98 2.98 0 01-1.683-.58zM304.91 171.708l.025.163c2.421-1.851 5.028-3.453 8.104-3.805 3.416-.395 7.304 1.009 9.032 4.175 1.067 1.954 1.126 3.97.624 5.908 1.404-.332 2.862-.142 4.222.941 2.585 2.068 2.19 5.555 1.796 8.471a54.53 54.53 0 01-2.466 10.461c-2.427 7.112-5.938 13.811-9.508 20.391-6.885 12.667-14.42 25.02-23.021 36.604-16.984 22.873-38.269 42.968-64.465 54.847-12.842 5.812-26.512 9.634-40.597 10.678-15.623 1.143-31.108-1.773-46.179-5.693-3.156-.82-6.312-1.69-9.468-2.56l-2.368-.652a527.924 527.924 0 00-5.898-1.635c-.357-.097-.718-.204-1.083-.312h-.001l-.002-.001c-1.412-.418-2.878-.853-4.319-.79-2.742.113-5.017 2.772-6.891 4.963-.404.472-.79.923-1.157 1.322a159.438 159.438 0 00-7.161 8.353c-9.094 11.348-16.59 24.094-22.192 37.51-1.44 3.468-7.16 1.931-5.7-1.576 6.075-14.578 14.064-28.152 23.967-40.465a151.259 151.259 0 017.752-8.945l.151-.162.123-.133.116-.126.368-.4c2.17-2.363 4.521-4.923 7.645-5.857 3.448-1.03 7.098.037 10.505 1.033l.001.001c.569.166 1.132.33 1.685.483l.009.002c4.238 1.181 8.476 2.363 12.734 3.505 14.539 3.861 29.353 7.053 44.483 6.363 13.67-.611 27.222-4.137 39.709-9.693 25.329-11.289 46.12-30.379 62.591-52.404 8.384-11.23 15.762-23.169 22.508-35.442 3.354-6.088 6.727-12.254 9.173-18.775 1.322-3.527 2.406-7.152 2.979-10.875a24.21 24.21 0 00.298-3.2l-.022.008-.533.512c-.499.458-.979.964-1.453 1.463l-.007.007-.006.007-.011.011-.01.011-.011.012-.183.193-.178.185-.107.112-.085.088-68.152 69.755c1.134.511 2.124 1.261 2.803 2.335 1.578 2.495.888 5.422-.276 7.917-5.304 11.453-20.271 15.794-31.413 18.937-27.271 7.701-56.751 7.171-83.707-1.493-3.609-1.159-2.051-6.836 1.577-5.677 28.534 9.174 59.729 8.938 88.086-.864 5.225-1.808 10.707-3.851 15.085-7.328 2.149-1.729 4.18-3.929 5.225-6.522l.024-.055c.496-1.179.708-1.681-.457-2.145-.953-.371-2.232-.272-3.362-.184-.367.029-.717.056-1.036.066-3.034.109-6.042.276-9.059.444h-.006c-4.022.224-8.059.448-12.192.538-7.237.157-14.454-.177-21.652-.884-13.76-1.339-27.317-3.981-40.873-6.622-13.893-2.707-27.785-5.414-41.888-6.717-12.62-1.159-25.813-.962-37.802 3.045-11.989 4.008-21.572 12.2-29.736 21.61-8.795 10.156-16.15 20.823-23.998 32.512a541.85 541.85 0 00-22.106 35.911v-.02c-1.873 3.32-6.98.354-5.107-2.966a537.317 537.317 0 0127.075-43.18l.82-1.179c8.459-12.171 17.207-24.758 28.324-34.673 8.614-7.672 18.21-12.866 29.546-15.47.353-1.06 1.249-1.934 2.688-1.986l47.984-1.693c3.437-.124 6.878-.228 10.319-.332h.001c10.682-.321 21.376-.644 32.014-1.596l.469-.041c6.559-.577 13.502-1.188 19.503-4.033 5.729-2.716 10.687-7.006 15.329-11.237 4.056-3.696 7.998-7.681 11.965-11.691h.001v-.001h.001c13.521-13.666 27.328-27.622 46.862-31.425l-.02.019c.947-.184 1.756.044 2.374.499.821-.723 1.653-1.478 2.499-2.246 5.309-4.814 11.174-10.134 18.194-11.175 3.647-.548 7.866.392 8.556 4.565zm-37.654 16.18c-10.408 3.821-19.385 10.846-27.393 18.489-3.159 3.008-6.218 6.124-9.277 9.241h-.001c-6.087 6.201-12.175 12.402-19.05 17.759-1.72 1.342-3.451 2.598-5.24 3.735a203.44 203.44 0 015.768 3.559 950.143 950.143 0 0121.383-21.49 958.716 958.716 0 0133.81-31.293zm-67.105 52.482a35.714 35.714 0 01-5.506 1.823c-6.559 1.594-13.473 2.106-20.209 2.578-10.212.711-20.445 1.031-30.676 1.34 5.52.978 11.033 2.038 16.547 3.099l.004.001h.001c21.237 4.085 42.493 8.173 64.222 7.59l.111-.003a206.015 206.015 0 00-24.206-16.244 3.648 3.648 0 01-.288-.184zm84.296-59.59a939.666 939.666 0 00-67.385 63.196 206.35 206.35 0 017.236 5.169c-.474-.995-.441-2.225.523-3.255a766.243 766.243 0 0123.07-23.626 737.773 737.773 0 0142.804-38.764 976.008 976.008 0 015.52-4.568c-.196-.843-.011-1.775.77-2.58.473-.49 2.583-2.763 2.129-3.566.008.007-.221.021-.53.04-.48.028-1.154.069-1.441.117-.927.137-1.853.411-2.701.764-3.311 1.336-6.124 3.752-8.835 6.08l-.002.002-.002.002c-.387.332-.772.663-1.156.989zm17.479 1.098a740.808 740.808 0 00-72.923 68.226l-.02-.019c-.698.746-1.506.991-2.266.897.613.472 1.224.948 1.832 1.428 1.266.973 1.928 2.542 1.051 4.071l-.016.029-.037.061c1.363-.081 2.727-.173 4.092-.265l.007-.001h.007l.007-.001h.007l.006-.001h.002c4.57-.308 9.143-.617 13.702-.524-.391-.955-.3-2.092.635-3.047l8.877-9.082 35.152-35.974 17.399-17.81c1.054-1.074 2.098-2.163 3.143-3.252l.004-.005c.719-.749 1.437-1.498 2.16-2.243-.843-.815-1.149-2.051-.216-3.299.117-.157.251-.329.395-.514 1.111-1.432 2.824-3.639 2.06-5.304-.688-1.484-2.946-1.464-4.222-1.108-3.064.874-5.901 3.399-8.484 5.698-.81.721-1.595 1.42-2.354 2.039zm4.949-131.179c.206-.232.449-.403.73-.522l.064-.082.06-.058c.218-.214.476-.409.734-.565.119-.078.298-.136.417-.175.052-.017.116-.046.183-.075.085-.038.175-.079.253-.1a3.1 3.1 0 01.953-.117c.148.014.429.05.636.084a2.7 2.7 0 01.455.052c.397.02.774.136 1.112.35.337.195.615.449.833.76.258.273.437.604.536.993.04.059.04.137.04.137l.119.779v.136c-.02.234-.06.565-.099.799-.02.038-.02.078-.02.116a3.85 3.85 0 01-.973 1.636c-.192.206-.43.367-.661.522l-.007.005-.086.058a.805.805 0 01-.178.097c-.616.292-1.151.506-1.866.467h-.059c-.11-.018-.246-.036-.381-.053a11.031 11.031 0 01-.433-.063c-.04 0-.099-.04-.099-.04h-.06c-.091-.04-.2-.084-.31-.13a12.995 12.995 0 01-.159-.064 2.773 2.773 0 01-1.138-.37l-.596-.448a2.89 2.89 0 01-.774-1.286l-.099-.779a2.21 2.21 0 01.258-1.13c.119-.35.318-.661.615-.934zm2.57 4.053l.005.002.017.002a.345.345 0 00-.014-.002l-.008-.002zm-1.042-4.87a.538.538 0 01-.029.023h-.002l.031-.024z" fill="#6EB1FF"/></svg>