<svg width="31" height="31" fill="none" xmlns="http://www.w3.org/2000/svg"><path d="M9.21.403C4.354.403.403 4.354.403 9.21v12.58c0 4.856 3.951 8.807 8.807 8.807h12.58c4.856 0 8.807-3.951 8.807-8.807V9.21c0-4.856-3.951-8.807-8.807-8.807H9.21zm15.096 5.033a1.26 1.26 0 011.258 1.258 1.26 1.26 0 01-1.258 1.258 1.26 1.26 0 01-1.258-1.258 1.26 1.26 0 011.258-1.258zM15.5 7.952c4.162 0 7.548 3.386 7.548 7.548 0 4.163-3.386 7.549-7.548 7.549S7.952 19.663 7.952 15.5c0-4.162 3.386-7.548 7.548-7.548zm0 2.516a5.03 5.03 0 00-5.032 5.032 5.03 5.03 0 005.032 5.032 5.03 5.03 0 005.032-5.032 5.03 5.03 0 00-5.032-5.032z" fill="#6EB1FF"/></svg>