<svg width="34" height="34" fill="none" xmlns="http://www.w3.org/2000/svg"><g clip-path="url(#clip0_40_120)"><path d="M33.963 18.482a.513.513 0 00-.276-.281l-6.806-2.922a.528.528 0 00-.202-.043h-1.126l-4.452-3.023a1.29 1.29 0 00-.722-.223h-.457l-.234-.696h6.418v.282c0 .287.228.515.515.515h2.284a.512.512 0 00.516-.515V7.639a.512.512 0 00-.516-.515h-2.284a.512.512 0 00-.515.515v.282h-7.544l-.282-.845a.509.509 0 00-.489-.35h-9.78a.521.521 0 00-.489.345l-1.689 4.914H2.428a.511.511 0 00-.5.398l-.76 3.193-1.12 2.343a.511.511 0 00.042.515l2.216 3.167 1.615 2.943c.924 1.684 2.746 2.725 4.754 2.725h16.527c1.977 0 3.788-1.02 4.734-2.683l1.737-3.421.967-.01a.511.511 0 00.467-.309l.85-1.965a.518.518 0 00.006-.399zm-6.822-7.687c0-.005.006-.01.006-.016 0-.005-.005-.01-.005-.016V8.447c0-.005.005-.01.005-.016 0-.005-.005-.01-.005-.016v-.271h1.253v2.906h-1.253v-.255zm-1.03-1.843v1.312h-6.763l-.436-1.312h7.199zM8.383 7.756h9.042l.292.871c0 .006.005.011.005.016l1.116 3.347H6.928l1.455-4.234zm-5.546 5.265h17.536c.053 0 .101.016.144.042l3.193 2.168H2.31l.527-2.21zm26.196 11.082c-.75 1.317-2.216 2.14-3.825 2.14H8.68c-1.637 0-3.108-.839-3.852-2.193l-1.402-2.556 2.38-.026c-.006.09-.022.18-.022.276a3.278 3.278 0 006.556 0c0-.122-.016-.234-.027-.35l1.54-.016a2.85 2.85 0 00-.03.371 3.274 3.274 0 006.55 0c0-.154-.022-.297-.038-.446l1.567-.016a3.391 3.391 0 00-.042.462 3.274 3.274 0 003.272 3.273 3.278 3.278 0 003.278-3.273c0-.18-.016-.36-.048-.536l2.152-.027-1.482 2.917zM6.816 21.744c0-.1.01-.197.021-.287l4.447-.053a2.247 2.247 0 11-4.468.34zm8.038 0c0-.133.01-.26.032-.383l4.409-.053a2.242 2.242 0 11-4.441.436zm8.038 0c0-.165.02-.319.058-.473l4.361-.048c.043.17.07.346.07.526a2.247 2.247 0 01-2.248 2.242 2.25 2.25 0 01-2.241-2.247zm9.403-1.615l-29.522.345-1.663-2.38.871-1.827h24.592l6.237 2.677-.515 1.185z" fill="#2C2C2C"/></g><defs><clipPath id="clip0_40_120"><path fill="#fff" d="M0 0h34v34H0z"/></clipPath></defs></svg>